<?xml version="1.0" standalone="no"?>
<!DOCTYPE svg PUBLIC "-//W3C//DTD SVG 20010904//EN"
 "http://www.w3.org/TR/2001/REC-SVG-20010904/DTD/svg10.dtd">
<svg version="1.0" xmlns="http://www.w3.org/2000/svg"
 width="300.000000pt" height="57.000000pt" viewBox="0 0 300.000000 57.000000"
 preserveAspectRatio="xMidYMid meet">
<metadata>
Created by potrace 1.10, written by Peter Selinger 2001-2011
</metadata>
<g transform="translate(0.000000,57.000000) scale(0.100000,-0.100000)"
fill="#000000" stroke="none">
<path d="M355 560 c-139 -12 -311 -65 -346 -106 -15 -18 15 -31 34 -16 38 32
258 75 427 85 l45 2 -22 23 c-13 12 -29 21 -35 21 -7 -1 -54 -5 -103 -9z"/>
<path d="M1419 559 c-117 -9 -206 -31 -280 -69 -54 -27 -56 -27 -67 -9 -16 26
-54 24 -80 -3 -30 -34 -68 -113 -90 -193 -19 -70 -83 -185 -102 -185 -6 0 -8
10 -6 23 17 81 40 175 47 189 6 10 5 19 -1 23 -23 14 -51 -9 -79 -68 -45 -92
-105 -185 -109 -166 -1 9 11 59 28 111 16 52 30 100 30 106 0 18 -132 7 -164
-13 -15 -10 -43 -45 -62 -79 -49 -84 -82 -126 -100 -126 -20 0 -18 19 12 99
l26 71 -31 32 c-17 17 -31 40 -31 50 0 21 -10 23 -32 6 -16 -14 -33 -118 -19
-118 5 0 15 10 24 22 26 40 31 11 8 -57 -11 -36 -21 -78 -21 -93 0 -60 55 -70
107 -20 29 28 33 29 33 12 0 -49 65 -60 106 -19 29 29 34 30 34 11 0 -22 28
-39 55 -32 17 4 35 24 56 61 17 30 32 55 34 55 1 0 0 -19 -2 -43 -4 -32 -1
-48 12 -60 33 -34 67 -15 114 63 l21 35 0 -31 c0 -43 34 -84 70 -84 34 0 77
41 136 132 48 72 50 78 32 78 -7 0 -32 -29 -55 -63 -23 -34 -54 -75 -69 -90
-49 -52 -87 -12 -40 43 35 42 105 185 112 229 5 31 12 40 45 54 91 39 258 71
419 80 l45 2 -25 23 c-13 12 -29 21 -34 21 -6 -1 -54 -5 -107 -10z m-369 -124
c0 -49 -89 -265 -110 -265 -9 0 30 159 56 225 26 66 54 87 54 40z m-420 -156
c0 -30 -48 -140 -72 -166 -50 -53 -64 -9 -25 79 41 92 97 142 97 87z"/>
<path d="M244 483 c-28 -4 -35 -12 -57 -61 -56 -125 -96 -362 -67 -397 21 -25
30 -17 30 28 0 85 53 259 111 364 29 53 36 74 22 71 -5 0 -22 -3 -39 -5z"/>
<path d="M1314 483 c-28 -4 -35 -12 -57 -61 -62 -137 -97 -363 -64 -406 13
-18 15 -12 26 65 15 102 60 241 107 329 35 65 40 81 27 78 -5 0 -22 -3 -39 -5z"/>
<path d="M1855 474 c-23 -23 -44 -77 -71 -184 -22 -88 -28 -99 -73 -142 -52
-51 -95 -69 -114 -48 -9 10 -9 14 2 18 26 9 99 82 111 111 6 16 10 44 8 62 -3
31 -6 34 -40 37 -46 4 -92 -34 -132 -110 -39 -73 -74 -118 -92 -118 -20 0 -18
20 11 97 l25 67 -30 31 c-16 17 -30 41 -30 53 0 12 -4 22 -8 22 -23 0 -40 -30
-45 -77 -6 -55 4 -69 24 -32 6 13 14 18 20 12 6 -6 1 -32 -11 -68 -23 -66 -26
-115 -8 -133 21 -21 59 -13 92 21 l32 32 20 -30 c34 -53 101 -47 168 15 l43
40 -8 -42 c-9 -52 2 -66 34 -45 19 12 25 28 31 72 7 65 17 88 54 128 34 36 56
36 48 0 -6 -26 -30 -53 -64 -72 -36 -20 51 -131 103 -131 17 0 33 12 51 38
l26 37 -5 -37 c-7 -45 5 -55 38 -34 18 12 25 26 25 47 0 59 21 116 56 150 24
23 37 30 44 23 17 -17 -8 -61 -46 -85 l-33 -20 21 -34 c27 -47 74 -85 104 -85
18 0 31 10 46 36 l21 36 12 -30 c14 -32 32 -42 76 -42 61 0 123 53 176 150 44
79 41 76 53 64 6 -6 0 -38 -15 -86 -30 -94 -23 -128 25 -128 41 0 81 39 134
133 47 83 56 83 56 2 0 -40 -2 -43 -32 -49 -17 -3 -37 -11 -45 -17 -36 -30 10
-86 61 -73 27 6 76 56 76 77 1 7 15 21 32 32 38 24 94 92 85 102 -4 4 -31 -17
-59 -47 l-52 -53 -13 64 c-6 35 -12 76 -12 92 -1 45 -44 29 -69 -28 -26 -58
-122 -195 -137 -195 -21 0 -19 28 9 102 l25 65 -30 29 c-16 15 -29 35 -29 44
0 54 -46 23 -52 -35 -12 -104 -169 -260 -204 -203 -4 6 -2 14 5 16 26 9 83 66
102 103 33 66 21 109 -30 109 -50 0 -103 -50 -137 -130 -24 -56 -58 -100 -76
-100 -10 0 -26 17 -38 40 -15 30 -17 40 -7 40 24 0 59 47 64 87 10 76 -52 95
-109 33 -15 -17 -30 -30 -33 -30 -6 0 43 136 66 183 l19 37 -25 0 c-14 0 -33
-8 -44 -19 -19 -19 -63 -140 -81 -226 -13 -59 -68 -145 -92 -145 -10 0 -26 17
-38 40 -15 30 -17 40 -7 40 26 0 59 48 64 93 5 39 2 47 -16 57 -28 15 -59 4
-93 -32 -16 -17 -28 -25 -28 -18 0 16 46 142 65 180 15 29 15 30 -9 30 -14 0
-32 -7 -41 -16z m-172 -207 c-1 -16 -17 -49 -35 -74 -62 -87 -79 -58 -27 46
22 44 36 61 48 59 11 -3 15 -13 14 -31z m777 5 c0 -38 -79 -146 -95 -131 -6 6
29 104 48 133 23 35 47 34 47 -2z m340 -177 c-16 -19 -40 -19 -40 -2 0 16 43
39 48 25 2 -5 -2 -15 -8 -23z"/>
<path d="M811 446 c-18 -22 -6 -46 21 -46 33 0 51 14 46 36 -4 24 -50 31 -67
10z"/>
</g>
</svg>
