<?xml version="1.0" standalone="no"?>
<!DOCTYPE svg PUBLIC "-//W3C//DTD SVG 20010904//EN"
 "http://www.w3.org/TR/2001/REC-SVG-20010904/DTD/svg10.dtd">
<svg version="1.0" xmlns="http://www.w3.org/2000/svg"
 width="300.000000pt" height="61.000000pt" viewBox="0 0 300.000000 61.000000"
 preserveAspectRatio="xMidYMid meet">
<metadata>
Created by potrace 1.10, written by Peter Selinger 2001-2011
</metadata>
<g transform="translate(0.000000,61.000000) scale(0.100000,-0.100000)"
fill="#000000" stroke="none">
<path d="M392 599 c-56 -4 -138 -17 -182 -28 -88 -22 -208 -80 -200 -96 7 -14
23 -11 108 20 83 29 242 56 354 58 69 1 75 3 67 19 -16 30 -40 34 -147 27z"/>
<path d="M1530 598 c-114 -8 -258 -44 -327 -83 -33 -18 -43 -20 -47 -9 -3 8
-17 19 -31 26 -22 10 -29 8 -56 -18 -38 -36 -84 -130 -105 -214 -15 -60 -89
-200 -106 -200 -5 0 -8 10 -8 23 0 30 37 183 50 208 9 15 7 21 -5 25 -18 7
-65 -21 -65 -39 0 -19 -119 -217 -130 -217 -9 0 15 97 45 182 24 69 24 68 -60
64 -92 -4 -127 -27 -174 -116 -34 -63 -86 -130 -102 -130 -16 0 -10 46 16 115
l26 67 -36 39 c-20 22 -33 44 -30 49 9 15 -13 22 -35 10 -14 -8 -19 -19 -18
-43 1 -18 -1 -42 -6 -54 -10 -30 8 -30 28 -1 30 42 36 6 11 -67 -29 -82 -31
-118 -9 -139 24 -24 59 -19 94 14 37 34 40 36 40 16 0 -23 29 -46 58 -46 16 0
39 12 58 31 l31 30 7 -25 c9 -35 49 -45 77 -20 12 11 32 40 45 67 29 55 39 60
30 13 -12 -65 27 -111 74 -86 11 6 33 33 49 61 l28 50 7 -40 c6 -42 43 -81 77
-81 28 0 83 54 134 129 54 83 62 101 42 101 -8 0 -30 -26 -50 -57 -46 -75
-105 -143 -123 -143 -8 0 -18 10 -23 22 -6 17 0 32 26 66 40 52 97 169 114
233 14 52 32 63 161 99 87 24 317 53 353 44 29 -7 33 6 8 28 -28 24 -33 24
-143 16z m-400 -124 c0 -50 -118 -325 -127 -297 -6 18 53 225 77 274 20 39 50
53 50 23z m-457 -156 c10 -30 -54 -189 -87 -217 -9 -7 -23 -10 -32 -7 -21 8
-12 52 28 131 42 85 80 123 91 93z"/>
<path d="M2011 519 c-13 -5 -30 -17 -38 -27 -12 -16 -61 -163 -83 -248 -12
-49 -75 -119 -127 -141 -32 -13 -38 -13 -51 0 -13 13 -11 17 16 31 42 22 100
93 113 138 14 54 -1 78 -48 78 -48 0 -91 -34 -127 -101 -62 -116 -126 -183
-126 -132 0 10 12 52 27 94 l27 77 -32 33 c-18 18 -32 41 -32 51 0 10 -6 18
-14 18 -20 0 -41 -30 -38 -55 2 -11 -2 -33 -7 -48 -8 -22 -8 -27 4 -27 8 0 19
9 26 21 16 32 36 8 21 -25 -6 -14 -18 -53 -27 -87 -15 -55 -15 -63 0 -85 23
-36 60 -31 104 14 l38 37 14 -30 c29 -63 119 -55 189 15 l39 39 -6 -50 c-5
-45 -4 -49 15 -49 31 0 52 27 52 68 0 61 19 110 56 147 41 42 54 44 54 10 0
-26 -29 -62 -65 -82 -16 -10 -17 -14 -6 -42 16 -38 84 -101 110 -101 11 0 34
18 53 40 l34 41 -4 -41 c-4 -34 -1 -40 15 -40 30 0 49 30 52 80 4 60 27 115
63 145 37 31 48 31 48 2 0 -28 -14 -46 -57 -76 l-32 -22 20 -33 c28 -48 68
-85 98 -93 20 -5 31 1 58 32 18 21 33 33 33 26 0 -6 11 -23 25 -36 65 -66 183
3 264 155 30 56 51 76 51 48 0 -7 -9 -42 -20 -76 -42 -132 -12 -186 74 -132
34 20 140 186 130 202 -9 14 -31 -9 -63 -66 -47 -80 -87 -123 -102 -109 -9 10
-6 27 15 85 14 40 26 80 26 89 0 8 -13 28 -30 44 -16 16 -30 37 -30 47 0 10
-6 18 -13 18 -23 0 -37 -23 -37 -60 0 -24 -12 -57 -36 -96 -46 -77 -68 -99
-122 -125 -39 -19 -45 -20 -59 -6 -14 14 -12 17 15 31 16 8 46 35 66 58 70 81
71 158 2 158 -51 0 -96 -37 -134 -110 -47 -92 -80 -140 -96 -140 -15 0 -39 32
-50 66 -5 16 -1 23 17 31 47 21 73 116 41 147 -27 27 -60 19 -105 -26 -35 -37
-40 -39 -34 -18 7 23 63 173 80 213 7 16 4 17 -21 11 -16 -4 -33 -9 -38 -12
-16 -9 -57 -114 -81 -209 -25 -100 -81 -203 -110 -203 -8 0 -24 18 -35 40 -24
48 -24 47 -1 53 45 12 78 118 46 150 -26 27 -52 20 -100 -24 -43 -40 -44 -40
-36 -12 8 26 59 164 76 206 8 19 1 20 -34 6z m-207 -207 c12 -19 -21 -87 -62
-131 l-43 -46 6 40 c6 37 36 105 57 133 12 14 34 16 42 4z m832 -7 c9 -21 -30
-96 -71 -135 -38 -37 -40 -35 -24 25 24 88 79 152 95 110z"/>
<path d="M252 513 c-66 -13 -164 -388 -126 -481 8 -18 18 -31 22 -28 5 3 12
36 15 73 8 97 50 232 106 346 52 105 52 103 -17 90z"/>
<path d="M1395 513 c-29 -8 -41 -29 -74 -128 -60 -181 -77 -323 -43 -366 19
-22 19 -22 25 48 12 123 57 254 155 446 4 8 -31 8 -63 0z"/>
<path d="M872 478 c-17 -17 -15 -45 4 -52 25 -9 33 -7 55 15 16 16 18 23 8 35
-14 17 -51 18 -67 2z"/>
</g>
</svg>
